<svg width="512" height="512" viewBox="0 0 512 512" fill="none" xmlns="http://www.w3.org/2000/svg">

  <!-- Speech Bubble -->
  <path
    d="M90 120C90 95 110 75 135 75H335C370 75 395 100 395 135V215C395 250 370 275 335 275H220L150 340V275H135C110 275 90 255 90 230V120Z"
    stroke="white"
    stroke-width="14"
    fill="none"
    stroke-linejoin="round"
  />

  <!-- WTF Text -->
  <text
    x="135"
    y="220"
    font-family="Arial, Helvetica, sans-serif"
    font-size="110"
    font-weight="900"
    fill="white"
    letter-spacing="-6"
  >
    WTF
  </text>

  <!-- Accent Lines -->
  <line x1="395" y1="75" x2="420" y2="40"
        stroke="white"
        stroke-width="12"
        stroke-linecap="round" />

  <line x1="425" y1="95" x2="460" y2="70"
        stroke="white"
        stroke-width="12"
        stroke-linecap="round" />

  <line x1="435" y1="130" x2="475" y2="130"
        stroke="white"
        stroke-width="12"
        stroke-linecap="round" />

  <!-- Sparkles -->
  <g fill="white">
    <path d="M70 80L75 95L90 100L75 105L70 120L65 105L50 100L65 95Z"/>
    <path d="M430 250L435 265L450 270L435 275L430 290L425 275L410 270L425 265Z"/>
    <circle cx="60" cy="260" r="5"/>
    <circle cx="455" cy="220" r="5"/>
  </g>

</svg>
